<svg width="100" height="100" viewBox="0 0 100 100" fill="none" xmlns="http://www.w3.org/2000/svg">
<g clip-path="url(#clip0_1_2)">
<rect width="100" height="100" fill="white"/>
<circle cx="10.362" cy="10.362" r="10.362" transform="matrix(-0.996308 -0.0858532 -0.0858532 0.996308 96.9936 22.264)" fill="#87A2FF"/>
<path d="M55.0282 65.7097L50.7993 24.2636L46.1536 23.8633L50.4316 70.7739L78.4931 83.0724L78.8934 78.4267L55.0282 65.7097Z" fill="#D9D9D9" stroke="#898989" stroke-width="2"/>
<path d="M49.7499 45.4941L75.5278 36.0149L79.1142 30.6037L50.2392 39.816L19.2363 25.4439L14.3594 30.7439L49.7499 45.4941Z" fill="#D9D9D9" stroke="#898989" stroke-width="2"/>
<circle cx="9.06678" cy="9.06678" r="9.06678" transform="matrix(-0.996308 -0.0858532 -0.0858532 0.996308 94.1902 24.6225)" fill="#C4D7FF"/>
<circle cx="10.362" cy="10.362" r="10.362" transform="matrix(-0.996308 -0.0858532 -0.0858532 0.996308 96.9936 22.264)" fill="#355DE6"/>
<circle cx="9.06678" cy="9.06678" r="9.06678" transform="matrix(-0.996308 -0.0858532 -0.0858532 0.996308 94.1902 24.6225)" fill="#92AFED"/>
<circle cx="10.362" cy="10.362" r="10.362" transform="matrix(0.570433 -0.821344 -0.821344 -0.570433 17.8312 42.2776)" fill="#87A2FF"/>
<circle cx="9.06678" cy="9.06678" r="9.06678" transform="matrix(0.570433 -0.821344 -0.821344 -0.570433 17.1812 38.6722)" fill="#C4D7FF"/>
<circle cx="10.362" cy="10.362" r="10.362" transform="matrix(0.570433 -0.821344 -0.821344 -0.570433 17.8312 42.2776)" fill="#D72F2F"/>
<circle cx="9.06678" cy="9.06678" r="9.06678" transform="matrix(0.570433 -0.821344 -0.821344 -0.570433 17.1812 38.6722)" fill="#D4B2A1"/>
<circle cx="10.362" cy="10.362" r="10.362" transform="matrix(0.971107 0.238646 0.238646 -0.971107 41.381 78.0649)" fill="#87A2FF"/>
<circle cx="9.06678" cy="9.06678" r="9.06678" transform="matrix(0.971107 0.238646 0.238646 -0.971107 44.5149 76.1675)" fill="#C4D7FF"/>
<circle cx="10.362" cy="10.362" r="10.362" transform="matrix(0.971107 0.238646 0.238646 -0.971107 41.381 78.0649)" fill="#D72F2F"/>
<circle cx="9.06678" cy="9.06678" r="9.06678" transform="matrix(0.971107 0.238646 0.238646 -0.971107 44.5149 76.1675)" fill="#D4B2A1"/>
<circle cx="10.362" cy="10.362" r="10.362" transform="matrix(-0.582768 0.812638 0.812638 0.582768 48.7302 28.2131)" fill="#87A2FF"/>
<circle cx="9.06678" cy="9.06678" r="9.06678" transform="matrix(-0.582768 0.812638 0.812638 0.582768 49.3257 31.8279)" fill="#C4D7FF"/>
<circle cx="10.362" cy="10.362" r="10.362" transform="matrix(-0.582768 0.812638 0.812638 0.582768 48.7302 28.2131)" fill="#832FD7"/>
<circle cx="9.06678" cy="9.06678" r="9.06678" transform="matrix(-0.582768 0.812638 0.812638 0.582768 49.3257 31.8279)" fill="#C4A1D4"/>
<circle cx="10.362" cy="10.362" r="10.362" transform="matrix(-0.582768 0.812638 0.812638 0.582768 78.0436 64.8329)" fill="#87A2FF"/>
<circle cx="9.06678" cy="9.06678" r="9.06678" transform="matrix(-0.582768 0.812638 0.812638 0.582768 78.6391 68.4477)" fill="#C4D7FF"/>
<circle cx="10.362" cy="10.362" r="10.362" transform="matrix(-0.582768 0.812638 0.812638 0.582768 78.0436 64.8329)" fill="#FFF500"/>
<circle cx="9.06678" cy="9.06678" r="9.06678" transform="matrix(-0.582768 0.812638 0.812638 0.582768 78.6391 68.4477)" fill="#FFFB96"/>
<circle cx="6.73429" cy="6.73429" r="6.73429" transform="matrix(-0.165598 0.986193 0.986193 0.165598 43.106 14.5003)" fill="#87A2FF"/>
<circle cx="5.89251" cy="5.89251" r="5.89251" transform="matrix(-0.165598 0.986193 0.986193 0.165598 44.4876 16.4394)" fill="#C4D7FF"/>
<circle cx="6.73429" cy="6.73429" r="6.73429" transform="matrix(-0.165598 0.986193 0.986193 0.165598 43.106 14.5003)" fill="#355DE6"/>
<circle cx="5.89251" cy="5.89251" r="5.89251" transform="matrix(-0.165598 0.986193 0.986193 0.165598 44.4876 16.4394)" fill="#92AFED"/>
</g>
<defs>
<clipPath id="clip0_1_2">
<rect width="100" height="100" fill="white"/>
</clipPath>
</defs>
</svg>
